<?xml version="1.0" encoding="UTF-8"?>
<svg id="Layer_2" data-name="Layer 2" xmlns="http://www.w3.org/2000/svg" viewBox="0 0 546.86 76.62">
  <defs>
    <style>
      .cls-1 {
        fill: #4f96cd;
      }

      .cls-1, .cls-2 {
        stroke-width: 0px;
      }

      .cls-2 {
        fill: #fdfdfe;
      }
    </style>
  </defs>
  <g id="Layer_1-2" data-name="Layer 1">
    <g>
]     <path class="cls-1" d="M37.58,76.62c-1.32-.28-2.65-.54-3.96-.86-15.27-3.77-24.92-13.31-29.13-28.35-1.04-3.71-1.24-7.54-.99-11.38.04-.56.27-1.32.68-1.6.46-.32,1.31-.42,1.82-.21.42.18.8.93.83,1.45.15,2.21.04,4.44.27,6.64.74,7.06,3.45,13.32,8.09,18.69,5.52,6.39,12.46,10.36,20.83,11.77,4.69.79,9.34.53,13.97-.51.23-.05.46-.14.69-.17.96-.11,1.75.41,1.95,1.26.21.89-.19,1.72-1.19,1.96-1.65.41-3.33.67-5,1.01-.3.06-.59.18-.89.28h-7.97Z"/>
      <path class="cls-1" d="M382.52,37.2h-2.16c-.95,1.68-1.92,3.4-2.9,5.12-4.58,8-9.13,16.02-13.77,23.99-.75,1.29-1.76,2.48-2.85,3.5-2.3,2.16-5.45,2.21-7.65-.05-1.56-1.61-2.9-3.5-4.03-5.44-4.88-8.43-9.64-16.92-14.47-25.38-.33-.57-.87-1.02-1.25-1.45-1.61.47-2,.97-1.99,2.23.06,6,.14,12,.14,18,0,3.31-.07,6.61-.21,9.92-.11,2.42-1.11,3.44-3.5,3.6-1.74.12-3.49.08-5.23-.01-1.63-.09-2.4-.84-2.66-2.42-.14-.83-.24-1.69-.24-2.53-.01-17.82-.02-35.65,0-53.47,0-.89.11-1.79.28-2.67.43-2.23,1.72-3.75,3.94-4.39,2.23-.65,4.46-.63,6.02,1.27,1.52,1.85,2.81,3.9,4.01,5.98,6.67,11.6,13.28,23.23,19.92,34.85.47.81,1.02,1.6,1.64,2.3.89.98,1.64,1,2.54.06.68-.71,1.29-1.52,1.79-2.37,5.67-9.72,11.3-19.46,16.96-29.19,1.92-3.31,3.82-6.64,5.83-9.9,1.74-2.83,4.31-3.8,7.56-3,1.42.35,2.42,1.26,3.07,2.55.83,1.63,1.22,3.38,1.22,5.19,0,17.16,0,34.33-.04,51.49,0,1.17-.19,2.36-.47,3.49-.38,1.57-1.5,2.59-3.09,2.74-1.68.15-3.4.13-5.08-.04-1.39-.14-2.31-1.11-2.62-2.47-.22-.96-.34-1.96-.34-2.94-.03-8.75-.01-17.49-.04-26.24,0-.72-.2-1.43-.33-2.29Z"/>
      <path class="cls-1" d="M272.18,71.51c-6.74,0-13.47,0-20.21,0-3.94,0-5.11-1.12-5.17-5.03-.02-1.47-.05-2.94.04-4.4.12-2.04.98-2.89,3.01-3.05,1.04-.08,2.09-.06,3.13-.06,11.96,0,23.91,0,35.87-.02,2.12,0,4.18-.34,5.98-1.51,2.43-1.58,3.63-3.86,3.23-6.77-.4-2.86-1.89-5.09-4.68-6.1-1.48-.54-3.13-.86-4.7-.88-7.73-.1-15.47-.03-23.2-.08-3.24-.02-6.42-.49-9.4-1.86-5.96-2.74-9.26-7.39-10.17-13.85-1.32-9.4,4.66-18.82,13.73-21.38,1.26-.36,2.61-.55,3.92-.55,12.19-.05,24.39-.05,36.58-.04,3.36,0,4.24.83,4.41,4.13.09,1.65.07,3.32-.12,4.95-.19,1.69-1.03,2.37-2.72,2.55-.8.08-1.61.07-2.42.07-10.2.06-20.4.1-30.59.18-1.75.01-3.52.07-5.24.35-3.22.52-5.36,3.19-5.51,6.64-.16,3.6,1.65,6.46,4.79,7.35,1.08.31,2.23.49,3.35.5,9.01.05,18.03-.04,27.04.07,7.08.09,12.43,3.34,15.46,9.71,2.61,5.5,3.14,11.36.52,17.02-2.86,6.18-7.54,10.46-14.44,11.9-.78.16-1.6.15-2.4.16-6.69.01-13.38,0-20.07,0Z"/>
      <path class="cls-1" d="M203.11,71.52c-3.41,0-6.83-.05-10.24.01-5.57.11-10.39-1.84-14.65-5.27-5.48-4.42-8.85-10.14-10.14-17.05-.18-.97-.3-1.97-.32-2.95-.13-4.72-.42-9.45-.29-14.17.17-6.36,1.9-12.3,5.93-17.4,4.56-5.77,10.54-8.84,17.89-8.98,7.25-.14,14.55.4,21.76-.2,11.47-.95,22.12,9.7,24.02,20.13.21,1.16.32,2.34.33,3.52.04,5.67-.03,11.35.04,17.02.07,5.71-1.97,10.61-5.46,15-3.82,4.8-8.71,8.08-14.55,9.94-.8.25-1.66.38-2.5.39-3.94.04-7.87.02-11.81.02ZM179.5,39.29c.11,2.29.05,5.09.4,7.84.76,5.89,5.27,10.49,11.11,11.62,5.91,1.14,11.88,1,17.85.75,1.93-.08,3.89-.23,5.78-.64,6.17-1.34,10.87-7.14,11.02-13.82.12-5.05.07-10.11-.24-15.15-.27-4.31-2.42-7.79-5.98-10.33-2.94-2.09-6.33-2.72-9.83-2.77-4.73-.08-9.47-.12-14.2.03-2.1.07-4.3.36-6.24,1.1-5.33,2.03-8.63,5.92-9.25,11.67-.33,3.04-.28,6.13-.41,9.69Z"/>
      <path class="cls-1" d="M438.45,71.52c-3.41,0-6.83-.05-10.24.01-6,.11-11.1-2.13-15.53-5.98-4.8-4.17-7.88-9.41-9.1-15.64-.41-2.07-.5-4.21-.62-6.33-.38-6.79-.84-13.61,1.29-20.23,2.91-9.04,8.75-15.11,18.25-17.22,1.56-.35,3.19-.43,4.79-.44,7.07-.07,14.17.39,21.19-.18,11.59-.94,22.36,9.99,24.01,20.79.32,2.09.3,4.24.32,6.36.04,4.11-.02,8.23,0,12.34.07,10.93-5.54,18.39-14.59,23.73-.85.5-1.77.91-2.67,1.33-2.17.99-4.4,1.59-6.86,1.49-3.41-.14-6.83-.04-10.24-.04ZM438.16,59.82c3.54-.25,7.09-.42,10.63-.76,6.74-.65,11.89-7.1,12.09-13.41.16-4.91.04-9.82.01-14.73,0-.75-.13-1.51-.3-2.24-1.18-5.35-4.19-9.19-9.51-10.85-2-.63-4.17-.89-6.28-1.01-2.5-.14-5.02.07-7.53.1-3.08.04-6.16-.08-9.23.1-6.81.4-12.82,6.73-12.98,13.53-.04,1.51-.09,3.03-.09,4.54,0,3.82-.17,7.66.11,11.46.43,5.75,4.7,10.59,10.34,11.98,4.17,1.03,8.44,1.17,12.72,1.29Z"/>
      <path class="cls-1" d="M507.41,71.52c-6.45,0-12.9,0-19.36,0-.76,0-1.52.02-2.28-.05-2.08-.19-3.34-1.14-3.57-3.19-.24-2.24-.25-4.53-.1-6.78.11-1.66.99-2.28,2.79-2.45,1.04-.09,2.09-.07,3.13-.07,12.1,0,24.19,0,36.29-.02,2.17,0,4.23-.47,6.05-1.74,4.49-3.15,3.68-8.68.22-11.54-1.82-1.51-4.05-2.01-6.38-2.02-7.78-.02-15.56.01-23.34-.04-3.53-.03-6.97-.58-10.19-2.18-5.77-2.86-8.84-7.6-9.53-13.84-.94-8.58,3.36-16.24,11.03-20.05,1.98-.98,4.07-1.57,6.28-1.58,12.9-.03,25.81-.04,38.71-.04,1.91,0,2.49.54,2.56,2.42.07,1.7.08,3.41,0,5.1-.07,1.91-.87,2.73-2.78,2.94-.89.1-1.8.07-2.7.07-10.01.02-20.02.02-30.03.05-1.51,0-3.03.09-4.54.25-4.09.44-7.04,4.21-6.59,8.32.51,4.61,3.86,7.59,8.54,7.6,8.97.01,17.93-.06,26.9.05,6.66.08,11.84,3.09,14.92,8.95,3.06,5.82,3.67,12.07.74,18.15-2.97,6.19-7.96,10.11-14.76,11.59-.68.15-1.42.1-2.13.1-6.64,0-13.28,0-19.93,0Z"/>
      <path class="cls-1" d="M136.76,58.74c5.74,0,11.48-.02,17.22,0,4.13.02,5.13,1.02,5.19,5.1.01.8,0,1.61-.02,2.41-.11,3.36-1.53,4.81-4.9,4.92-1.71.06-3.41.04-5.12.04-7.02-.02-14.04-.02-21.06-.07-3.89-.02-7.77-.06-11.66-.19-6.28-.22-12.34-4.57-14.44-10.48-.54-1.53-.82-3.23-.83-4.85-.06-11.44-.09-22.88,0-34.32.07-7.93,5.3-14.17,12.78-15.47.7-.12,1.41-.16,2.12-.16,12.99-.02,25.99-.02,38.98-.03.33,0,.66,0,1,.02,2.13.1,3,.92,3.09,3.06.07,1.7.07,3.4,0,5.1-.08,1.83-1.03,2.75-2.86,2.88-1.04.07-2.09.07-3.13.07-8.58.01-17.17,0-25.75.03-2.89,0-5.78.09-8.67.16-3.77.09-5.32,1.55-5.63,5.29-.06.71-.05,1.42-.05,2.13,0,9.03-.03,18.06,0,27.09,0,1.22.1,2.45.31,3.66.32,1.89,1.51,3.01,3.41,3.3,1.07.16,2.16.27,3.25.28,5.6.03,11.19.01,16.79.01v.02Z"/>
      <path class="cls-1" d="M41.25.22c9.99.2,18.47,3.21,25.65,9.57,7.56,6.69,11.9,15.05,12.85,25.11.96,10.23-1.92,19.33-8.18,27.41-.34.43-.81.96-1.28,1.03-.56.09-1.32-.12-1.76-.48-.65-.54-.58-1.35-.09-2.06,1.03-1.47,2.16-2.88,3.08-4.42,3.95-6.61,5.59-13.74,4.85-21.44-1.38-14.42-12.02-26.87-26.28-30.26-11.53-2.74-21.98-.26-31.12,7.38-.65.55-1.27,1.13-1.9,1.71-.95.88-1.88.96-2.62.22-.74-.74-.72-1.71.25-2.61,1.46-1.35,2.93-2.69,4.53-3.87C24.6,3.59,30.65,1.27,37.29.55c1.46-.16,2.92-.25,3.96-.33Z"/>
      <path class="cls-1" d="M41.71,53c-8.13-.11-14.55-6.35-14.56-14.53,0-8.29,6.53-14.53,14.53-14.54,8.14-.01,14.56,6.42,14.57,14.51,0,8.11-6.42,14.46-14.54,14.56ZM52.76,38.45c.2-5.75-4.52-11.12-11-11.14-5.99-.02-11.2,4.42-11.2,11.13,0,6.7,5.2,11.16,11.2,11.14,6.43-.02,11.18-5.28,11-11.13Z"/>
      <path class="cls-1" d="M25.92,58.55c.7-2.16,1.57-2.5,3.22-1.41,3.74,2.47,7.88,3.78,12.31,3.79,5.52.02,10.56-1.66,14.77-5.32,7.69-6.68,9.99-16.56,6.2-26.01-.21-.53-.38-1.28-.17-1.73.24-.5.95-1.05,1.46-1.06.51-.01,1.33.5,1.52.98.74,1.88,1.51,3.79,1.88,5.77,2.57,13.84-5.86,26.79-19.56,30.09-7.3,1.76-14.08.32-20.33-3.74-.55-.36-.94-.97-1.31-1.36Z"/>
      <path class="cls-1" d="M15.72,39.35c.13-14.06,9.64-24.47,22.02-26.51,4.09-.67,8.12-.31,12.04,1.04,1.41.49,1.86,1.76,1,2.75-.55.64-1.25.69-2.07.51-1.79-.4-3.6-.85-5.42-1.02-6.05-.54-11.44,1.25-16.05,5.12-5.12,4.3-7.79,9.89-8.1,16.55-.07,1.49.21,3.01.34,4.51.04.42.15.84.17,1.26.04.93-.43,1.54-1.32,1.76-.85.21-1.72-.3-1.9-1.26-.35-1.85-.57-3.72-.71-4.71Z"/>
      <path class="cls-1" d="M8.52,31.53c-4.66,0-8.26-3.63-8.24-8.3.02-4.53,3.7-8.18,8.25-8.19,4.65,0,8.29,3.62,8.29,8.27,0,4.69-3.57,8.23-8.29,8.22ZM8.53,28.15c2.8,0,4.87-2.02,4.89-4.79.02-2.83-2.09-4.95-4.91-4.93-2.74.01-4.83,2.12-4.83,4.88,0,2.75,2.09,4.84,4.85,4.84Z"/>
      <path class="cls-1" d="M60.96,62.4c3.86,0,6.81,2.96,6.81,6.83,0,3.82-3.01,6.82-6.84,6.82-3.79,0-6.84-3.06-6.83-6.85,0-3.82,3.01-6.79,6.87-6.79ZM64.38,69.21c0-2.07-1.41-3.46-3.49-3.43-1.95.02-3.39,1.47-3.4,3.41,0,1.92,1.46,3.43,3.38,3.46,2.02.03,3.51-1.43,3.51-3.44Z"/>
      <path class="cls-1" d="M63.74,20.24c-.02,3.08-2.51,5.54-5.63,5.53-2.94,0-5.58-2.59-5.61-5.49-.03-3.02,2.67-5.71,5.71-5.7,3.03.02,5.55,2.59,5.53,5.66ZM60.97,20.18c0-1.66-1.2-2.86-2.85-2.86-1.47,0-2.81,1.32-2.85,2.8-.04,1.59,1.24,2.88,2.85,2.89,1.67.01,2.85-1.16,2.85-2.84Z"/>
      <path class="cls-1" d="M21.77,55.65c-2.54,0-4.38-1.84-4.39-4.37-.01-2.43,1.97-4.43,4.39-4.44,2.56,0,4.46,1.91,4.44,4.49-.02,2.51-1.89,4.33-4.44,4.32ZM21.79,53.38c1.22,0,2.15-.92,2.14-2.14,0-1.18-1.01-2.15-2.18-2.12-1.12.03-2.07.98-2.09,2.09-.02,1.18.94,2.17,2.13,2.17Z"/>
    </g>
  </g>
</svg>